<svg id="visual" viewBox="0 0 960 540" width="960" height="540" xmlns="http://www.w3.org/2000/svg" xmlns:xlink="http://www.w3.org/1999/xlink" version="1.1"><rect x="0" y="0" width="960" height="540" fill="#00122000"></rect><defs><linearGradient id="grad1_0" x1="43.8%" y1="0%" x2="100%" y2="100%"><stop offset="14.444444444444446%" stop-color="#001220" stop-opacity="1"></stop><stop offset="85.55555555555554%" stop-color="#001220" stop-opacity="1"></stop></linearGradient></defs><defs><linearGradient id="grad2_0" x1="0%" y1="0%" x2="56.3%" y2="100%"><stop offset="14.444444444444446%" stop-color="#001220" stop-opacity="1"></stop><stop offset="85.55555555555554%" stop-color="#001220" stop-opacity="1"></stop></linearGradient></defs><g transform="translate(960, 0)"><path d="M0 378C-36.5 381 -73 384.1 -97.6 364.2C-122.1 344.2 -134.7 301.4 -165 285.8C-195.3 270.2 -243.4 282 -265.2 265.2C-287 248.4 -282.5 203.1 -297.9 172C-313.3 140.9 -348.5 124.1 -365.1 97.8C-381.8 71.5 -379.9 35.8 -378 0L0 0Z" fill="#643cfa"></path></g><g transform="translate(0, 540)"><path d="M0 -378C34.6 -377.2 69.1 -376.4 97.1 -362.2C125 -348.1 146.4 -320.6 176.5 -305.7C206.6 -290.8 245.5 -288.5 267.3 -267.3C289.1 -246.1 293.7 -206 300.5 -173.5C307.3 -141 316.1 -115.9 329.4 -88.3C342.6 -60.6 360.3 -30.3 378 0L0 0Z" fill="#643cfa"></path></g></svg>