<svg width="82" height="83" viewBox="0 0 82 83" fill="none" xmlns="http://www.w3.org/2000/svg">
<path d="M2.25428 14.743C3.00783 8.26598 8.01975 3.0987 14.4744 2.17284C34.033 -0.632643 48.3606 -0.785568 67.9118 2.08918C74.3898 3.04169 79.3584 8.30746 80.0246 14.8212C82.0201 34.3321 81.9649 48.6683 80.0196 68.1285C79.3549 74.7781 74.2251 80.1251 67.6014 81.0112C48.2026 83.6061 33.9203 83.7142 14.4547 81.0257C8.00733 80.1352 2.99179 74.9823 2.22229 68.5193C-0.0294113 49.6075 -0.129199 35.2299 2.25428 14.743Z" fill="url(#paint0_linear_30_121)"/>
<path d="M51 36.5C51 29.5938 43.7266 24 34.75 24C25.7734 24 18.5 29.5938 18.5 36.5C18.5 39.1797 19.6016 41.6484 21.4688 43.6875C20.4219 46.0469 18.6953 47.9219 18.6719 47.9453C18.5 48.125 18.4531 48.3906 18.5547 48.625C18.6562 48.8594 18.875 49 19.125 49C21.9844 49 24.3516 48.0391 26.0547 47.0469C28.5703 48.2734 31.5469 49 34.75 49C43.7266 49 51 43.4062 51 36.5ZM60.5312 53.6875C62.3984 51.6562 63.5 49.1797 63.5 46.5C63.5 41.2734 59.3203 36.7969 53.3984 34.9297C53.4688 35.4453 53.5 35.9688 53.5 36.5C53.5 44.7734 45.0859 51.5 34.75 51.5C33.9062 51.5 33.0859 51.4375 32.2734 51.3516C34.7344 55.8438 40.5156 59 47.25 59C50.4531 59 53.4297 58.2812 55.9453 57.0469C57.6484 58.0391 60.0156 59 62.875 59C63.125 59 63.3516 58.8516 63.4453 58.625C63.5469 58.3984 63.5 58.1328 63.3281 57.9453C63.3047 57.9219 61.5781 56.0547 60.5312 53.6875Z" fill="white"/>
<defs>
<linearGradient id="paint0_linear_30_121" x1="6.5" y1="5" x2="91" y2="94.5" gradientUnits="userSpaceOnUse">
<stop stop-color="#BD00FF"/>
<stop offset="1" stop-color="#4200FF"/>
</linearGradient>
</defs>
</svg>
