<svg id="visual" viewBox="0 0 960 540" width="960" height="540" xmlns="http://www.w3.org/2000/svg" xmlns:xlink="http://www.w3.org/1999/xlink" version="1.1"><g stroke-width="1" stroke-linejoin="bevel"><path d="M498 300L387 293L444 332Z" fill="#15384f" stroke="#15384f"></path><path d="M387 293L351 324L444 332Z" fill="#112e42" stroke="#112e42"></path><path d="M498 300L498 174L387 293Z" fill="#19435d" stroke="#19435d"></path><path d="M387 293L291 296L351 324Z" fill="#246688" stroke="#246688"></path><path d="M498 174L387 171L387 293Z" fill="#277297" stroke="#277297"></path><path d="M498 300L551 200L498 174Z" fill="#1d4e6b" stroke="#1d4e6b"></path><path d="M604 358L579 303L498 300Z" fill="#081a28" stroke="#081a28"></path><path d="M498 300L579 303L551 200Z" fill="#246688" stroke="#246688"></path><path d="M369 461L466 414L444 332Z" fill="#00101c" stroke="#00101c"></path><path d="M444 332L466 414L498 300Z" fill="#15384f" stroke="#15384f"></path><path d="M272 201L291 296L387 293Z" fill="#1d4e6b" stroke="#1d4e6b"></path><path d="M351 324L369 461L444 332Z" fill="#1d4e6b" stroke="#1d4e6b"></path><path d="M498 174L383 117L387 171Z" fill="#112e42" stroke="#112e42"></path><path d="M387 171L272 201L387 293Z" fill="#205a7a" stroke="#205a7a"></path><path d="M484 86L383 117L498 174Z" fill="#277297" stroke="#277297"></path><path d="M466 414L604 358L498 300Z" fill="#205a7a" stroke="#205a7a"></path><path d="M660 97L549 113L551 200Z" fill="#246688" stroke="#246688"></path><path d="M383 117L272 201L387 171Z" fill="#15384f" stroke="#15384f"></path><path d="M549 113L484 86L498 174Z" fill="#297ea6" stroke="#297ea6"></path><path d="M692 205L551 200L579 303Z" fill="#297ea6" stroke="#297ea6"></path><path d="M551 200L549 113L498 174Z" fill="#00101c" stroke="#00101c"></path><path d="M213 332L259 355L291 296Z" fill="#205a7a" stroke="#205a7a"></path><path d="M291 296L259 355L351 324Z" fill="#0c2435" stroke="#0c2435"></path><path d="M259 355L369 461L351 324Z" fill="#297ea6" stroke="#297ea6"></path><path d="M466 414L596 436L604 358Z" fill="#19435d" stroke="#19435d"></path><path d="M503 540L596 436L466 414Z" fill="#112e42" stroke="#112e42"></path><path d="M596 436L643 394L604 358Z" fill="#297ea6" stroke="#297ea6"></path><path d="M604 358L693 268L579 303Z" fill="#1d4e6b" stroke="#1d4e6b"></path><path d="M171 302L213 332L291 296Z" fill="#112e42" stroke="#112e42"></path><path d="M259 355L257 469L369 461Z" fill="#277297" stroke="#277297"></path><path d="M643 394L693 268L604 358Z" fill="#246688" stroke="#246688"></path><path d="M693 268L692 205L579 303Z" fill="#205a7a" stroke="#205a7a"></path><path d="M348 0L278 56L383 117Z" fill="#297ea6" stroke="#297ea6"></path><path d="M383 117L278 56L272 201Z" fill="#081a28" stroke="#081a28"></path><path d="M272 201L171 302L291 296Z" fill="#00101c" stroke="#00101c"></path><path d="M179 428L257 469L259 355Z" fill="#15384f" stroke="#15384f"></path><path d="M312 540L395 540L369 461Z" fill="#19435d" stroke="#19435d"></path><path d="M369 461L395 540L466 414Z" fill="#15384f" stroke="#15384f"></path><path d="M163 171L171 302L272 201Z" fill="#1d4e6b" stroke="#1d4e6b"></path><path d="M213 332L179 428L259 355Z" fill="#19435d" stroke="#19435d"></path><path d="M395 540L503 540L466 414Z" fill="#1d4e6b" stroke="#1d4e6b"></path><path d="M596 436L698 469L643 394Z" fill="#19435d" stroke="#19435d"></path><path d="M692 205L660 97L551 200Z" fill="#277297" stroke="#277297"></path><path d="M549 113L508 0L484 86Z" fill="#1d4e6b" stroke="#1d4e6b"></path><path d="M484 86L348 0L383 117Z" fill="#277297" stroke="#277297"></path><path d="M609 0L508 0L549 113Z" fill="#081a28" stroke="#081a28"></path><path d="M508 0L348 0L484 86Z" fill="#112e42" stroke="#112e42"></path><path d="M213 72L163 171L272 201Z" fill="#297ea6" stroke="#297ea6"></path><path d="M257 469L312 540L369 461Z" fill="#081a28" stroke="#081a28"></path><path d="M280 0L213 72L278 56Z" fill="#0c2435" stroke="#0c2435"></path><path d="M278 56L213 72L272 201Z" fill="#297ea6" stroke="#297ea6"></path><path d="M503 540L592 540L596 436Z" fill="#246688" stroke="#246688"></path><path d="M643 394L774 368L693 268Z" fill="#00101c" stroke="#00101c"></path><path d="M171 302L179 428L213 332Z" fill="#15384f" stroke="#15384f"></path><path d="M257 469L194 540L312 540Z" fill="#112e42" stroke="#112e42"></path><path d="M348 0L280 0L278 56Z" fill="#15384f" stroke="#15384f"></path><path d="M660 97L609 0L549 113Z" fill="#1d4e6b" stroke="#1d4e6b"></path><path d="M592 540L698 469L596 436Z" fill="#15384f" stroke="#15384f"></path><path d="M693 268L784 241L692 205Z" fill="#00101c" stroke="#00101c"></path><path d="M105 96L123 166L163 171Z" fill="#246688" stroke="#246688"></path><path d="M163 171L123 166L171 302Z" fill="#1d4e6b" stroke="#1d4e6b"></path><path d="M171 302L94 418L179 428Z" fill="#00101c" stroke="#00101c"></path><path d="M105 96L163 171L213 72Z" fill="#00101c" stroke="#00101c"></path><path d="M698 469L741 432L643 394Z" fill="#15384f" stroke="#15384f"></path><path d="M774 368L784 241L693 268Z" fill="#246688" stroke="#246688"></path><path d="M692 205L783 170L660 97Z" fill="#00101c" stroke="#00101c"></path><path d="M660 97L695 0L609 0Z" fill="#19435d" stroke="#19435d"></path><path d="M741 432L774 368L643 394Z" fill="#15384f" stroke="#15384f"></path><path d="M784 241L783 170L692 205Z" fill="#00101c" stroke="#00101c"></path><path d="M75 540L194 540L179 428Z" fill="#297ea6" stroke="#297ea6"></path><path d="M179 428L194 540L257 469Z" fill="#297ea6" stroke="#297ea6"></path><path d="M786 94L695 0L660 97Z" fill="#246688" stroke="#246688"></path><path d="M698 469L748 540L741 432Z" fill="#19435d" stroke="#19435d"></path><path d="M872 472L866 363L774 368Z" fill="#205a7a" stroke="#205a7a"></path><path d="M592 540L697 540L698 469Z" fill="#277297" stroke="#277297"></path><path d="M280 0L179 0L213 72Z" fill="#00101c" stroke="#00101c"></path><path d="M61 334L94 418L171 302Z" fill="#081a28" stroke="#081a28"></path><path d="M123 166L64 290L171 302Z" fill="#19435d" stroke="#19435d"></path><path d="M0 304L64 290L0 208Z" fill="#0c2435" stroke="#0c2435"></path><path d="M179 0L105 96L213 72Z" fill="#246688" stroke="#246688"></path><path d="M859 57L786 94L783 170Z" fill="#246688" stroke="#246688"></path><path d="M783 170L786 94L660 97Z" fill="#1d4e6b" stroke="#1d4e6b"></path><path d="M774 368L832 265L784 241Z" fill="#1d4e6b" stroke="#1d4e6b"></path><path d="M784 241L888 213L783 170Z" fill="#277297" stroke="#277297"></path><path d="M866 363L832 265L774 368Z" fill="#00101c" stroke="#00101c"></path><path d="M64 290L61 334L171 302Z" fill="#297ea6" stroke="#297ea6"></path><path d="M697 540L748 540L698 469Z" fill="#0c2435" stroke="#0c2435"></path><path d="M786 94L750 0L695 0Z" fill="#0c2435" stroke="#0c2435"></path><path d="M179 0L115 0L105 96Z" fill="#277297" stroke="#277297"></path><path d="M0 208L64 290L123 166Z" fill="#277297" stroke="#277297"></path><path d="M872 472L774 368L741 432Z" fill="#246688" stroke="#246688"></path><path d="M832 265L888 213L784 241Z" fill="#1d4e6b" stroke="#1d4e6b"></path><path d="M0 208L123 166L105 96Z" fill="#0c2435" stroke="#0c2435"></path><path d="M64 290L0 304L61 334Z" fill="#00101c" stroke="#00101c"></path><path d="M61 334L0 383L94 418Z" fill="#00101c" stroke="#00101c"></path><path d="M94 418L75 540L179 428Z" fill="#277297" stroke="#277297"></path><path d="M960 283L888 213L832 265Z" fill="#1d4e6b" stroke="#1d4e6b"></path><path d="M786 94L859 57L750 0Z" fill="#00101c" stroke="#00101c"></path><path d="M0 65L0 208L105 96Z" fill="#19435d" stroke="#19435d"></path><path d="M0 454L75 540L94 418Z" fill="#15384f" stroke="#15384f"></path><path d="M0 304L0 383L61 334Z" fill="#19435d" stroke="#19435d"></path><path d="M888 213L859 57L783 170Z" fill="#1d4e6b" stroke="#1d4e6b"></path><path d="M748 540L872 472L741 432Z" fill="#205a7a" stroke="#205a7a"></path><path d="M866 363L960 283L832 265Z" fill="#15384f" stroke="#15384f"></path><path d="M0 383L0 454L94 418Z" fill="#1d4e6b" stroke="#1d4e6b"></path><path d="M115 0L0 65L105 96Z" fill="#15384f" stroke="#15384f"></path><path d="M960 0L866 0L859 57Z" fill="#00101c" stroke="#00101c"></path><path d="M859 57L866 0L750 0Z" fill="#205a7a" stroke="#205a7a"></path><path d="M960 336L960 283L866 363Z" fill="#15384f" stroke="#15384f"></path><path d="M888 213L960 104L859 57Z" fill="#1d4e6b" stroke="#1d4e6b"></path><path d="M0 454L0 540L75 540Z" fill="#1d4e6b" stroke="#1d4e6b"></path><path d="M960 443L960 336L866 363Z" fill="#112e42" stroke="#112e42"></path><path d="M115 0L0 0L0 65Z" fill="#297ea6" stroke="#297ea6"></path><path d="M960 283L960 194L888 213Z" fill="#0c2435" stroke="#0c2435"></path><path d="M748 540L892 540L872 472Z" fill="#205a7a" stroke="#205a7a"></path><path d="M872 472L960 443L866 363Z" fill="#081a28" stroke="#081a28"></path><path d="M960 194L960 104L888 213Z" fill="#277297" stroke="#277297"></path><path d="M960 540L960 443L872 472Z" fill="#081a28" stroke="#081a28"></path><path d="M892 540L960 540L872 472Z" fill="#205a7a" stroke="#205a7a"></path><path d="M960 104L960 0L859 57Z" fill="#19435d" stroke="#19435d"></path></g></svg>